<svg xmlns="http://www.w3.org/2000/svg" width="64" height="64" viewBox="0 0 64 64">
  <defs>
    <linearGradient id="g" x1="0" y1="0" x2="1" y2="1">
      <stop offset="0" stop-color="#3b82f6"/>
      <stop offset="1" stop-color="#1e3a8a"/>
    </linearGradient>
  </defs>
  <rect width="64" height="64" rx="14" fill="url(#g)"/>
  <path d="M18 44V20h10.2c3.6 0 6.2.8 7.9 2.4 1.6 1.6 2.4 3.7 2.4 6.3 0 2.7-.8 4.8-2.4 6.4-1.6 1.6-4.1 2.4-7.6 2.4H24v6.1h-6zm6-11h5.9c1.8 0 3.1-.3 3.9-1 .8-.7 1.2-1.7 1.2-3.1 0-1.3-.4-2.4-1.2-3.1-.8-.7-2.1-1-3.9-1H24v8.2z" fill="#fff" opacity="0.95"/>
</svg>
